<svg width="864" height="181" viewBox="0 0 864 181" fill="none" xmlns="http://www.w3.org/2000/svg">
<g clip-path="url(#clip0_15_9)">
<path d="M77.0203 4.01239L0 176.987H18.2062L38.717 131.158L43.6822 120.061L51.0117 103.384L56.2139 91.7852L57.8098 88.1488L79.0306 40.6888L106.753 103.384H68.0357L60.6471 120.061H113.964L139.559 176.987H157.055L81.0397 4.01239H77.0203V4.01239Z" fill="#1A1A1A"/>
<path d="M186.788 4.01239V108.399C186.788 125.876 187.748 138.07 189.743 144.888C193.216 156.721 199.969 165.844 210.018 172.348C216.887 176.743 224.592 179.535 233.071 180.687V163.884C229.707 163.107 226.364 161.831 223.022 160.123C211.865 154.558 205.452 145.076 203.752 131.596C203.309 128.148 203.043 120.39 203.043 108.399V4.01239H186.788V4.01239ZM278.408 4.01239V108.399C278.408 122.035 277.861 131.095 276.753 135.484C275.201 141.596 272.748 146.784 269.423 151.095C263.808 158.353 256.833 162.748 248.439 164.26V180.937C257.994 179.92 266.425 176.473 273.62 170.53C282.301 163.359 288.234 154.12 291.412 142.756C293.628 134.606 294.722 123.133 294.722 108.399V4.01239H278.408V4.01239Z" fill="#1A1A1A"/>
<path d="M329.892 4.01243L378.303 87.8354V87.8979L387.938 104.449L396.39 118.995L430.261 176.987H449.353L397.573 87.8352L446.102 4.01227H427.305L387.938 71.5346L348.925 4.01227H329.892V4.01243ZM369.2 103.384L326.346 176.988H345.379L378.835 119.935L369.2 103.384V103.384Z" fill="#1A1A1A"/>
<path d="M494.578 176.962H478.286V4.04218H494.578V176.962Z" fill="#1A1A1A"/>
<path d="M523.417 4.01239L577.976 138.932L586.843 117.177L541.151 4.01239H523.417V4.01239ZM650.091 4.01239L601.561 122.004H601.62L586.31 159.558L593.345 176.987H596.891L667.823 4.01239H650.09H650.091Z" fill="#1A1A1A"/>
<path d="M770.26 0C757.553 1.00479 745.59 4.84617 734.44 11.6612C721.14 19.8901 710.752 31.1438 703.289 45.3284C695.827 59.5132 692.117 74.8264 692.118 91.2837C692.117 116.675 700.481 138.038 717.18 155.358C732.002 170.732 749.674 179.21 770.26 180.937V164.135C754.179 162.526 740.384 155.529 728.883 143.195C715.658 129.01 709.082 111.738 709.082 91.2837C709.082 77.4126 712.067 64.8265 718.126 53.5413C724.184 42.2564 732.593 33.244 743.306 26.5826C751.816 21.2914 760.818 18.204 770.26 17.1156V0V0ZM785.629 0.12523V17.1156C794.985 18.254 803.921 21.3781 812.465 26.5824C835.444 40.6105 846.926 61.9425 846.926 90.4685C846.926 104.261 843.882 116.785 837.823 128.148C831.764 139.512 823.393 148.43 812.642 154.856C804.2 159.902 795.188 162.926 785.629 164.01V181C806.425 179.354 824.221 170.698 839.005 154.982C855.519 137.427 863.772 115.938 863.773 90.4685C863.772 64.5287 855.423 42.8519 838.651 25.4539C824.036 10.3664 806.354 1.94956 785.629 0.12523V0.12523Z" fill="#1A1A1A"/>
</g>
<defs>
<clipPath id="clip0_15_9">
<rect width="863.772" height="181" fill="white"/>
</clipPath>
</defs>
</svg>
