<svg xmlns="http://www.w3.org/2000/svg" xmlns:xlink="http://www.w3.org/1999/xlink" viewBox="0 0 150 69.47"><defs><style>.cls-1{fill:none;clip-rule:evenodd;}.cls-2,.cls-3{fill:#ffcd27;}.cls-3{fill-rule:evenodd;}.cls-4{clip-path:url(#clip-path);}.cls-5{fill:#fff;opacity:0.59;}.cls-6{fill:#383838;}</style><clipPath id="clip-path"><path class="cls-1" d="M127,40.64a16.4,16.4,0,1,1,16.36-16.38A16.37,16.37,0,0,1,127,40.64"/></clipPath></defs><title>Asset 1</title><g id="Layer_2" data-name="Layer 2"><g id="Layer_1-2" data-name="Layer 1"><path class="cls-2" d="M88.3,16.41h0a11.83,11.83,0,0,0-2.52-3.66,12,12,0,0,0-3.68-2.46,11.59,11.59,0,0,0-8.87-.06A11.62,11.62,0,0,0,70.28,12a12.32,12.32,0,0,0-2.95-1.75A11.11,11.11,0,0,0,63,9.38a11.37,11.37,0,0,0-4.52.91,12,12,0,0,0-3.68,2.46,11.81,11.81,0,0,0-2.52,3.66,11.08,11.08,0,0,0-.94,4.53V38.22h8.77V20.48a2.75,2.75,0,0,1,1-1.68A2.86,2.86,0,0,1,63,18.1a2.72,2.72,0,0,1,2,.83,2.91,2.91,0,0,1,.89,2V38.22h8.77V20.76a2.92,2.92,0,0,1,4.79-2,3,3,0,0,1,1,1.71V38.22h8.77V20.94A11.09,11.09,0,0,0,88.3,16.41Z"/><rect class="cls-2" x="95.58" y="11.11" width="8.77" height="27.11"/><circle class="cls-2" cx="99.97" cy="4.39" r="4.39"/><path class="cls-3" d="M127,40.64a16.4,16.4,0,1,1,16.36-16.38A16.37,16.37,0,0,1,127,40.64"/><g class="cls-4"><path class="cls-5" d="M124.53,29.16c0,.16,0,.44-.08.57s-.12.24-.3.39-.18.52-.35.66-.07,0-.1,0-.09-.06,0,.08-.05.24.05.48,0,.23,0,.49-.14.15,0,.37-.16.12-.09.36-.23.22-.2.49-.07.12-.14.21-.16.12-.19.1h0a.19.19,0,0,1-.16,0c-.06,0-.12,0-.15,0s-.16.1-.42.35a.35.35,0,0,0-.09.45c0,.19.13.31,0,.41s.1.09-.15.26-.06.22-.16.37,0,.3-.16.43.09.14-.26.37a.36.36,0,0,1-.48.13.11.11,0,0,0-.12,0,.08.08,0,0,1-.09,0c-.06-.07-.3,0-.34-.31-.07.24.14.23,0,.27s.43.12.42.32.07.18.12.18h0c.06.18,0,.14,0,.24-.08.27-.19.2-.33.27a.59.59,0,0,1-.43.07l-.05,0s0,0-.05,0,0,0,0,0-.06.09,0,.1,0,.07.07.09,0,.09,0,.09,0,.14,0,.17-.17.18-.29.11-.18,0-.15-.06-.17,0-.06.06,0,.27.19.27c0,0,0,0,.08,0s-.08,0,0-.06.06,0,.08.1a0,0,0,1,1-.07,0s-.17,0-.17,0,.14,0,.15,0-.1,0-.07.09,0,0,0,.15-.08.06,0,.16-.11,0-.14.09-.09,0-.12.14.07.12.13.2.11.08.14.07.06,0,.11.07,0,.22,0,.23c-.29-.15-.59-.28-.88-.44s-.52-.28-.81-.48c0,0-.13-.08,0-.34.07-.1,0-.07,0-.12s0-.08-.08-.13a0,0,0,0,0-.07,0h0s0,0,0,0h0c-.09-.12,0-.15-.1-.28s.15-.05,0-.29-.06-.2-.09-.22.07,0-.06-.11-.12-.1-.1-.18,0,0,0,0,.12.08.06,0,0-.09,0-.14,0,0,0-.16.09,0,0-.18,0-.16,0-.29,0-.13-.11-.34a2.33,2.33,0,0,1-.19-.53s0,0,0,0h0s0,0,0-.07h0s0,0,0,0-.06,0-.06-.1-.11.05-.07-.3a4.46,4.46,0,0,0,0-.45c0-.24.05-.23,0-.28s0-.06-.05-.18,0-.1-.09-.24,0,0,0-.21,0-.1,0-.1,0,0,0-.06,0-.08-.06-.23,0-.07,0-.07,0,0,0,0,0-.22-.07-.28,0,0-.06-.16,0-.12-.08-.15-.17-.12-.19-.18-.46-.3-.51-.34-.27-.07-.36-.19-.18-.12-.26-.22-.18-.14-.22-.22,0,0,0,0h0c0-.07-.18-.23-.13-.31s0,0-.06-.17-.11-.11-.16-.3-.18-.36-.25-.57-.11-.11-.14-.19-.12-.1-.16-.2,0,0-.24-.23a.22.22,0,0,1-.07-.21c-.07-.08,0-.06-.08-.18s-.07-.09,0-.09,0,0,0,0,0-.09,0-.12.1-.16.13-.15.05,0,.15-.19,0-.08,0-.11-.06,0-.06,0,0,.1-.05,0-.08,0,0-.06,0,0,0-.05-.07-.06,0-.09,0-.07,0-.07c-.07,0,0-.05,0-.06s0-.1.08-.25,0-.06,0-.17,0-.06,0-.06,0,0,0,0,.07,0,.11-.06.1,0,.14-.09,0,0,0,0,0,0,0-.06.09-.07.12-.07l0,0c0-.05-.09-.08,0-.15s.23,0,.22-.12a.45.45,0,0,1,.18-.22c-.06,0,0-.06,0-.06s0,0-.08,0,0-.08,0-.13a.8.8,0,0,0,0-.28c0-.06,0-.06,0-.06v0s.1,0,.06-.12,0-.09,0-.09,0,0,0,0,0-.07,0-.09,0,0,0,0l0,0s0,0,0-.07-.05,0,0-.07,0-.09,0-.14,0,0,.07,0,0,0,0-.09,0,.07-.12.11,0-.1,0-.09,0,0-.05,0,0,0-.11,0-.14,0-.11,0,0,0-.13.14,0,.05,0,.09.07,0,0,.09-.13.06-.16,0,0-.08,0-.11,0,.06-.06.07,0,0-.08-.07,0-.09-.13-.1,0-.06-.07,0h0s0,0,0,0,0,0,0,0,0,0,0-.06,0,0,0-.07-.08,0,0,0,0,0,0,0-.05,0,0-.07,0,0,0-.06a1,1,0,0,0-.22-.15c-.09,0,0,0-.05-.08s-.06,0,0,0,0,.08-.05,0-.1-.06-.07-.11,0-.07,0-.1-.1,0-.05-.05.08,0,0,0,0-.07-.1-.15-.11-.27-.19-.36,0-.09,0-.06l0,0s0-.09-.09-.05c-.26.11-.24,0-.38,0s-.07,0-.17,0-.23,0-.37-.23a.55.55,0,0,0-.17-.21c-.18-.16-.22-.09-.27-.14s.07-.08,0,0h-.1s.11,0,0,0,0,.05-.17.05-.1.11-.26,0a.17.17,0,0,1-.2,0c0-.05-.09,0-.16-.1s-.16,0-.2,0c0-.35.06-.71.12-1.06s.11-.69.19-1,.19-.78.27-1,.2-.7.32-1,.25-.68.4-1,.28-.63.45-.95.34-.64.53-.95.38-.61.58-.91.43-.59.65-.88.48-.59.72-.86.59-.58.84-.84.42-.38.69-.63l.12-.09a1.24,1.24,0,0,1,.46.05c.07,0,.07,0,.09,0H117a.09.09,0,0,0,.08,0s0-.05.05,0,.11.09.11,0-.08,0-.12-.11.09,0,.11,0,0,0,0,0,.15,0,.07.07,0,0-.1.13c.18,0,.07-.07.18-.14s.06,0,.1,0a.32.32,0,0,0,.13,0c.15,0,.24,0,.19-.07s0,0,0,0a0,0,0,0,1-.05,0c-.06,0,.1-.1.16-.08s.18-.06.16-.07a.25.25,0,0,0-.12,0,.25.25,0,0,1-.16,0,0,0,0,0,0-.05,0s0,0-.1,0,.21-.09.17-.16.07-.06.14-.11,0,0,.06,0,0,0,.06,0-.16,0,.09-.08.23,0,.2.07.12.11,0,.14-.06,0-.07,0,0,0,0,0,.1,0-.06.13c.09,0,.2,0,.06.11a.29.29,0,0,0,.22-.07c.07-.08.22,0,.12.1s0,.1,0,.18c.23-.18.34-.15.41-.2s.09-.07.15-.08c-.14,0,.07-.16.18-.12s.2,0,.26,0,.18.08.11.1,0,.06-.13,0,0,0-.05.06.1.08-.07.17a.23.23,0,0,1-.18,0,.16.16,0,0,0-.11,0,.23.23,0,0,1-.11,0,.13.13,0,0,0-.08,0c-.07,0-.1-.07-.19-.07s-.06,0,0,0h0a.13.13,0,0,1,.06.05c0,.06,0,.06,0,.06h-.08c-.07,0-.08,0-.09,0s0-.06-.17,0,.27,0-.12.14c-.24.06-.16.08-.33.07s0-.12-.27-.1c.18,0,.1.09.22.12h.13c.05,0,.07,0,0,0s-.21.14-.32.14h-.08c-.05,0-.1,0-.14,0s0,0-.13.07a.21.21,0,0,1-.11,0,1,1,0,0,0-.34,0c.16,0,.18,0,.1,0,.17-.06.21,0,.24,0s0,.09-.17.07,0,0-.11.06-.16.09-.24.1-.24.14-.3.13.07,0-.21.12c-.1,0,0,0-.09.06s0,0-.09.08,0,.13-.2.22c.07,0,.07,0,.07.06s.06,0,.14,0,.08.07.07.1,0,.11,0,.13-.09,0-.11,0,0,0-.09,0,0,0,.06,0h.06c.08,0,.31-.13.33,0s.29,0,.32.13,0,0,0,0a.1.1,0,0,1,.07,0c.12.08.2,0,.16.09s.07,0,.16,0,.15,0,.16,0,.06,0,.09,0,.08,0,0,0,0,.05,0,.12,0,0,0,0h0s-.06,0-.14,0,.18,0,.17.1,0,.07-.12.08c.23,0,.08.2.14.23s0,0-.1.09.07,0,.13-.06,0,0,0,.06,0,.08,0,.07h0s.05,0,0,0,.07,0,.15-.07,0,.08.11.14c-.08-.07,0-.09,0-.08s-.07,0-.07-.09.22,0,.21-.18,0-.08,0-.12,0-.17,0-.17l0,0c0-.06-.09,0,0-.08a1.48,1.48,0,0,0,.77-.33c.38-.38-.06-.41,0-.46s-.08-.06.15-.13,0,0,.12-.06-.07,0,.08-.12-.09,0,.09-.14,0-.2.16-.26a.52.52,0,0,1,.39,0,.2.2,0,0,0,.2,0c.06,0,.1-.07.26.06,0,.12.05.09.09.13s.06,0,.08,0a0,0,0,0,1,0,0c.05,0,0,0,0,.08s0,0,.07,0,0,0,.06,0,0,0-.08.07.14.09-.16.12c0,0,.09,0,.09,0s-.22.09-.2.18c.17-.08.25,0,.18,0s-.15.08-.14,0,0,.06-.1.08.12,0,.09.06c.14-.13.32-.19.3-.11s0,0,0,0l0,0c0-.08.15-.09.22-.17s0,0,0,0,0,.05,0,0,0-.08.11-.11,0-.1.09-.14.12-.19.17-.11.1,0,.08.09,0,0,0,.09.07,0,0,.1.1.07,0,.16c.14,0,.07.15-.12.17,0,0,.08,0,.19,0s-.08.09,0,.14,0,.21.06.16,0,0,0,0,0,0,0,0,.06,0,.05,0,0,0,0,0,0,0,0,0,0,0,0,0,.23,0,.09,0a1.91,1.91,0,0,1-.37.07c-.21,0,0,0-.19.09a.9.9,0,0,0,.39-.07c.11,0,.15-.07.22,0s0,0,0,.07,0,0,.11,0,.12.08,0,.11.06.07,0,.08.14.06-.07.16-.12,0-.13,0,0,0-.14.05-.15,0-.13.08h0s0,0-.08,0l0,0s0,0-.22.06-.19.06-.22,0-.06,0-.18,0-.1,0-.13,0a1,1,0,0,0-.35,0c-.38,0-.47.05-.47.11s-.1.07-.22.1-.11.11-.18.07,0,0-.1.06-.38.27-.49.3,0,.06-.2.15a.59.59,0,0,0,.23-.12,3.71,3.71,0,0,1,.94-.38c.21,0,.33,0,.31.06s0,0,0,0h0s.05,0,0,.05-.07,0-.19.07-.08,0-.1,0a.17.17,0,0,0-.11,0c.06,0,.07,0,.09,0h0s0,0,.06,0,0,.09-.12.12c.05,0,.1.1.13.22s0,.08.21.09,0,.11.14,0,.07,0,.07,0,0,0,0,0,.06,0,.06,0a.17.17,0,0,1-.12.1c-.09,0-.16.14-.25.1s0,0,0,0,0,0-.08,0-.05,0-.17,0,0,.06-.07.08-.19.12-.21.09,0,0,0,.05,0-.07,0-.09,0-.1.16-.22a.33.33,0,0,1,.25-.07h0s0,0,.2,0a.42.42,0,0,1-.2,0,.18.18,0,0,0-.11,0h-.07s.22-.08.08-.16c0,.05,0,.06-.14.14a.26.26,0,0,1-.17,0s0,0-.06,0-.25.15-.25.15-.12-.07-.15,0,0,0,0,0,0,0,0,0-.08.1-.1.09a.05.05,0,0,0-.06,0c-.08.06-.16,0-.24.12s-.06.05-.12.13-.08.09-.05.16,0,0,.06,0,0,0,0,.06-.18,0-.18,0-.1.11-.16.08,0,0-.16,0-.17.1-.24.12,0,0-.05,0,.07,0,0,.08-.08,0-.11.09-.06,0-.11,0,0,0,.06.08,0,0-.06,0,0,0,0,0,0,0-.12.1,0,.1-.06,0-.06,0-.08-.13,0,.05,0,.09,0,0,0,.08,0,.18-.09.22l0-.07s0-.09,0-.06-.1.2-.17.23-.05,0,0-.07-.06-.08,0-.13-.05,0,0-.11,0,0,0-.09,0,0-.08,0,0,.15-.07.11,0,.07,0,.05,0,.06.08.12h0s0,0-.06,0,.12.05,0,.11c.09-.05,0,.09.06.17s0,.18,0,.18h-.05s-.07,0-.08,0-.05.06,0,.06,0,0,0,0,0,0,0,0,.06,0,0,.06,0,.06-.14,0,0,0,0,.06,0,0,0,0h0s0,.09-.14.1-.15.12-.19.1-.06,0-.1.07-.09.08-.12.07-.18.07-.2.1-.06.05-.12.11-.14.08-.15.07h0a.07.07,0,0,1-.11,0s0,0,0,0,0,.06,0,.09,0,0-.1.09c-.26.31-.16.3-.2.36s0,.25,0,.36,0,.06,0,0,0,0,0,0,0,.24,0,.25,0,0,0-.08,0-.12,0,0,.07.22.06.26,0,.19-.07.31,0,.06,0,.11,0,0,0,0h0s0,0,0,0h0a.07.07,0,0,1-.1,0s0,0,0,0,0,0,.05,0-.05,0-.07-.08-.09,0-.09-.13,0-.08,0-.12,0,0,0,0c-.09-.21,0-.19,0-.25s.17-.27.08-.32,0-.12-.1-.13,0-.13-.17,0-.11,0-.13,0h0c-.06,0-.1,0,0,0s0,0-.23-.09.14,0,.09-.06-.24,0-.2,0-.15,0-.19,0,0,0-.09.05-.06-.07-.06-.07,0,0,0,.07,0,0-.09,0h-.06a.14.14,0,0,1-.13,0s-.05,0-.08,0,.18,0,.11.11.07,0,0,.07.1.05,0,.07-.06,0-.09,0h0s0,0-.06,0-.17,0-.19,0h0s0,0,0,0,0,0-.1,0a.14.14,0,0,1-.13,0c-.06,0-.12-.07-.27,0s-.19.14-.15.09,0,0,0-.12c-.14.07-.06.07-.1.1s.09,0-.06.08-.12.12-.15.09h-.09s0,0,0,0v.05s0,.06-.07,0,0,.11-.09.13-.07.1-.09.09,0,0-.05,0,0,0,0,.09-.09.1-.06.14,0,0,0,.15a.28.28,0,0,1-.1.22c-.14.16-.08.47-.19.61s.07.23,0,.32.05.26.11.38,0,.13.06.15,0,.13.09.12.06,0,.11,0,.09.09.2,0,.17,0,.28-.08.14,0,.21-.06.12,0,.05,0-.07.07,0,0-.07,0,.1-.11,0-.16.11-.19,0-.12,0-.24.33-.16.35-.15.06,0,.1,0a.39.39,0,0,1,.16,0,.17.17,0,0,0,.1,0s0,0,.06,0,0,0,0,0,0,0,0,0-.07.11-.11.18,0,.13-.1.13h0s.07,0,0,.08-.09.25-.13.28,0,.14-.05.15,0-.09,0-.19c0,.05-.07.06-.06.09s0,.14,0,.23-.05.16-.11.23-.1,0-.09.13,0,0,0,0,0,0,.06,0,0,0,.12,0,0-.07.1,0a.43.43,0,0,0,.23,0,.45.45,0,0,1,.23,0s0,0,0,0h0a.24.24,0,0,1,.13,0c.13,0,0,0,0,0h0a.19.19,0,0,1,.09,0c.06,0,.05,0,0,0s0,0,0,0,.08.1.12.12-.11.07,0,.09,0,.18-.06.19,0,0,0,.15a.39.39,0,0,0,0,.16s-.07.08,0,.06,0,0,0,0,0,.09,0,.06,0,0,0,0l0,0s0,.09,0,.11,0,.17,0,.21,0,0,0,.07.1.19.14.24.09,0,.07.06,0,0,0,0-.07,0,0,.06,0,0,0-.05a.4.4,0,0,1,.08.08.32.32,0,0,0,.22,0c.06,0,.13,0,.17-.06s.06,0,0,0l0,0a.13.13,0,0,1,.07,0c.11,0,0,0,0-.05s0-.07.06-.09a.13.13,0,0,1,.12,0h0s0,0,.11,0,0,0,.06.07,0,0,.1.08.06,0,.15.16c0-.05,0-.05,0-.05s0,0,0,0-.07,0,0-.07.07,0,.12-.11.08-.08.11-.08h0c.09-.08,0-.06,0-.12s0-.16,0-.18.07-.1.18-.14,0,0,.09.06.07-.14.13-.14.08,0,.29-.13,0-.14.12-.14,0,0,.13,0,.1.07,0,.14,0,0-.06.06,0,.15,0,.17,0,.07,0,.06,0,0,0,0-.12.08-.15.17.11.08.11.14.17,0,.17,0a.34.34,0,0,0,0-.2s-.07,0,0-.07,0,0,0-.12a.28.28,0,0,1,.19-.12c.1,0,0-.08.09-.06s0,0,0,0,0,0-.05,0-.06,0-.05-.06.12-.07.12,0,0,.05.12.09.07,0,.08,0h0c.05,0,.14.1.07.12s0,.1.21.07.36,0,.33,0,0,.09.26.06.06-.09.22-.11c-.19,0-.09,0,0,0a.2.2,0,0,0,.1,0h.24s-.09,0-.2,0-.08,0,0,0,0,0,.12.16c0,0,.11,0,.14,0s.16.07.14.17.07,0,0,0,0,0,0,0,0,.08-.11.07c.08,0,.11,0,.13,0s0,0,.11.07.12,0,.27.12.15.12.08.27c0,0,0-.06.14,0s0,.11.11.13-.05.22-.05.23a.61.61,0,0,0,.1-.12s.09,0,.15,0,.09,0,.13,0a.08.08,0,0,1,.09,0h0a.1.1,0,0,1,.09,0h0s.18,0,.18.06,0,0,.08,0,.12,0,.18.11,0,0,0,0,0,0,0,0,.06,0,.08.08,0,0,.07.12,0,0,.09.08,0,0,0,0,0,0,0,0a4.39,4.39,0,0,0,.17.52.13.13,0,0,1,.06.23c-.1.07,0,.13-.15.19s-.1.16-.12.3a.25.25,0,0,1-.11.15h0c-.05,0,0,0,0,0s.12.19.12.19,0-.08,0-.16.14-.06.17-.16,0-.07,0-.19.08-.07.13-.06h.11c.15,0,.33,0,.26.06s0,.07-.09.17,0,.11-.06.16a.11.11,0,0,1-.08,0,.18.18,0,0,0-.11,0c-.05,0-.06,0-.08,0s0,0-.11,0a.09.09,0,0,1,.08,0s0,0,.13,0,0,0,.1.2c-.05-.2.06-.26.12-.25s0-.17.19-.22.2.07.49.2.22.16.16.19.11,0,0,.17c.11-.1.09-.11.23,0a1,1,0,0,0,.47.15c.15-.06.24,0,.41.12s.33.18.44.29a.23.23,0,0,0,.19,0c.1,0,.19,0,.23.1a1,1,0,0,1,.13.45m3.82-17.86s.21,0,.17-.06.18,0,.14-.07,0,0,0,0h-.07c-.13,0-.26-.08-.31,0a.46.46,0,0,1-.19.07s0,0,0,0,0,0,0,0-.05,0,0-.09.22,0,.13-.07-.31,0-.18-.06a.44.44,0,0,1,.25,0c.08,0,.19,0,.24.06s.23.13.25.07.09,0,.1-.09,0-.13-.07-.1l0,0s0,0-.07,0-.05,0-.1,0,0-.05-.1,0,0,0,0,0,0,0-.06,0-.1,0,0-.06.08,0,.21,0a.22.22,0,0,0,.14,0,.17.17,0,0,1,.1,0c.1,0,.3,0,.25-.05s0,0,0,0a.09.09,0,0,0,.09,0c.06,0,.09,0,0-.08s.15-.05.06-.11-.12-.08,0-.11.05,0,.06,0,0,0,.1,0,.28-.08.15-.08h-.11s-.06,0-.11,0-.05,0,.05-.07.07,0,.09,0,0,0,.09,0,0-.06,0-.1-.07,0,.05-.1,0-.06-.09-.05h-.1a.2.2,0,0,0-.19,0c-.08.08,0,.09-.06.15s-.22.13-.13.06.17-.13.08-.15a.27.27,0,0,0-.18,0s0-.05.11-.08,0,0,0-.06a.28.28,0,0,0-.16,0s0,.09-.05.06-.07-.06-.18,0a.33.33,0,0,1-.13,0,.27.27,0,0,0-.19,0,.1.1,0,0,1-.13,0,.2.2,0,0,0-.15,0,.32.32,0,0,1-.16,0,.26.26,0,0,0-.16,0,.15.15,0,0,1-.13,0s-.09,0-.22,0-.25.1-.18,0-.1,0-.32,0-.14,0-.15,0,0,0-.08,0a.13.13,0,0,1-.11,0,.12.12,0,0,0-.1,0,.18.18,0,0,1-.13,0,.19.19,0,0,0-.12,0c-.11,0-.17.08-.32,0s-.23,0-.2,0,0,0-.11,0a.5.5,0,0,0-.23,0,.18.18,0,0,1-.15,0,.11.11,0,0,0-.11,0,.16.16,0,0,1-.13,0,.21.21,0,0,0-.14,0,.45.45,0,0,1-.15,0,.23.23,0,0,0-.11,0h-.1a.26.26,0,0,0-.13,0,.25.25,0,0,1-.15,0,.36.36,0,0,0-.15,0,.59.59,0,0,1-.21,0h-.21c-.23,0,0,.06-.17.09s0,.06-.16.09a.17.17,0,0,1-.11,0H123a.51.51,0,0,0-.26,0c-.18.07,0,0,.06.06a.74.74,0,0,0,.34,0c.11,0-.08,0,.09,0s.11,0-.1,0-.12,0-.27.07-.17,0,0,.08.1,0,.18,0h.19a.16.16,0,0,1,.1,0h.11a.52.52,0,0,1,.19,0,.39.39,0,0,0,.15,0c.06,0,.06,0,.07,0h.07c.1,0,.19,0,.12.07s.13,0,.07.07.13,0,.07.07,0,.07,0,.08,0,.07-.11.09S124,11,124,11s0,.06.11,0a.22.22,0,0,0,.1,0h0s0,0,0,0,.06.05.12,0,.15-.05.06,0,0,0,.05,0,.06,0,0,0,.1,0,0,0a.26.26,0,0,1-.14,0h-.17a.14.14,0,0,0-.09,0c-.09,0,0,.05,0,.06s.12.05.16,0,.13,0,.17,0-.06.06,0,.09-.11,0-.08.06,0,0-.06,0a.23.23,0,0,0-.14,0c-.06.05.17,0,.09.08s-.06,0-.09,0a.09.09,0,0,0-.11,0c-.1,0-.21,0-.14.08s-.18,0-.1.08-.12,0,0,.1.07.07,0,.07-.12,0,0,.09,0,.23.07.2S124,12,124,12s-.1,0-.11.07-.09,0-.07.07,0,.12.06.15,0,.07.1.09,0,.11.08.13,0,.1.13.12.05.06.12,0l.15-.06c.08,0-.05,0,.06.06s0,0,.09.07,0,.07.09.06h.11c.06,0,.1,0,.08-.07s.2-.09.12-.12.17-.05.1-.09.16,0,.06-.13.14-.09.1-.12.18,0,.14-.06.17-.05.11-.09.19,0,.11-.08-.09-.12,0-.1.23,0,.17,0,0-.09.11-.1H126c.08,0,.15,0,.12,0s.13-.07.16,0l0,0s.22,0,.18,0,.1-.08.18-.06.07,0,.09,0,.06-.05.11,0,.06,0,.08-.07,0-.08.1-.07.07,0,.06,0,0,0,0,0,.06.12.16.08a.21.21,0,0,1,.12,0,.13.13,0,0,0,.1,0,.11.11,0,0,1,.09,0,.19.19,0,0,0,.1,0,.45.45,0,0,1,.17,0s.08,0,.07,0,.24,0,.2-.06,0,0,.1,0,.12,0,.1,0m-13.9,10.2v0h-.05l0,0v0h0s0,0,.06,0l.07,0v0h0M124,11.34h.13c.06,0,.05-.05,0-.08a.13.13,0,0,0-.1,0h-.17a0,0,0,0,0-.05,0,0,0,0,0,0,0,0h0l0,0s0,0,.09,0m-8.16,10.59c.06,0,.1,0,.12,0H116s0,0,.1,0a.21.21,0,0,0,.11,0s0,0,0,0,0,0-.07,0,0,0,0,0h0l-.07,0H116s-.08,0,0,0,.07,0,0,0,0,0,0-.06h-.15s-.06,0-.1,0-.12-.09-.16-.09h0s0,0,0,0,0,0,0,0,0,0-.05,0h0s0,0-.07,0-.06,0-.1-.07,0,0-.09-.05-.08,0-.09-.05,0,0-.06,0-.05,0-.1,0h-.06s0,0-.11,0-.17,0-.19,0h0a.21.21,0,0,0-.11,0c-.13,0-.07,0-.1,0s-.15,0-.16.06h0l0,0s-.06,0-.05.08.05,0,0,.05l0,0h0a.14.14,0,0,1-.09,0s0,0,.05,0,.09-.06.06,0,0,0,0,0l.06,0,0,0s0,0,0,0h.09s0,0,.07,0,0,0,0,0a.9.9,0,0,1,.25,0s.05,0,0,0h-.07s-.07,0-.08,0l0,0s.08,0,.11,0h.07a.19.19,0,0,0,.1,0H115s0,0,0,0l.09,0c.06,0,.1.06.14.06h.1s0,0,0,0,0,.06,0,.09,0,0,0,.05a.07.07,0,0,0,.08,0h.06s.07,0,.06,0,0,0,0,0,0,0,0,0l-.07,0s0,0-.07,0-.05,0,0,0,.07,0,.11,0h.25m1.79.5h.18a.08.08,0,0,0,.08,0s0,0,0,0,0,0,0,0h-.1a.47.47,0,0,0-.17,0c-.05,0,0,0-.05,0s0,0,0,0,0,.06,0,.06m-2.12,0a.13.13,0,0,0,.1,0s.07,0,.06,0,0,0-.07,0-.08-.05-.1-.07l-.12,0h-.1a.2.2,0,0,0-.1,0s0,0,0,0,0,0,.06,0,0,.06.06.06,0,0,.07,0v0h0a0,0,0,0,0,0,0s0,0,0,0m1.85-.15s.08-.07,0-.09l-.12-.09a.23.23,0,0,0-.15,0h-.07a.11.11,0,0,1,.09,0s.07,0,0,0h-.12s0,0,0-.06H117s0,0-.05,0,0,0-.09,0h-.07a.08.08,0,0,0-.06,0h-.1s0,0-.05,0l-.08,0h0s0,0,0,0h-.09s0,.05,0,.06.08,0,.06,0,0,0,0,0,0,0,0,.05,0,0,0,.06l.07,0a.22.22,0,0,0-.09,0,.16.16,0,0,1-.09,0h-.17s-.09,0-.08,0,0,.05,0,.06a.12.12,0,0,1,.08,0h0s0,0,.08,0,.06,0,.12,0a.36.36,0,0,1,.16,0l.06,0v0s0,.06,0,.05.06,0,.07,0,0,0,.06,0a.12.12,0,0,1,.07-.06s.06,0,0,0h0l.05,0s0,0,0,0,.06,0,.07,0h.08s.06,0,.09,0,.06,0,.1.08,0,0,0,0,0,0,0,0m13.05-8.1h0l-.08,0s0,0,0,0h0s0,0,0,0l.08,0-.09,0s0,0,0,0h0a.11.11,0,0,1,.08,0h.4l0-.06v.06h.11s0,0,0,0l0,0s0,0,0,0V14s0,0,0,0,0,0,0,0,0,0,0,0l0,0s0,0,0,0h0l0,0h0l0,0v0h-.07l0,0v0l0,0v0l0,0h-.07l-.06,0H131l0,0s0,0,0,0,0,0,0,0,0,0,0,.05,0,0,0-.05h-.1s0,0,0,0,0,0,0,0,0,0,0,0,0,0,0,0,0,0,.07,0,0,0,0,0,0,0-.05,0,0,0,0,0,0,0-.05,0h-.05l-.08,0h0v0l0,0a.07.07,0,0,0-.06,0l0,0s0,0,.05,0,0,0,0,0,0,0,0,0h0s0,0,0,0,0,0,0,0h0l0,0s0,0,.09,0,0,0,0,0,0,0-.06,0h0l0,0s0,0,0,0,0,0,0,0h.06a.09.09,0,0,0,.07,0h0s0,0,0,0h-.15c-.05,0,0,0,0,0s0,0,0,0l0,0h-.1s-.06,0,0,0h.05m.62-.36,0,0,0,0m-10.63,1.62s0,0-.08,0a.19.19,0,0,1-.11,0h0s-.06,0-.09-.06,0,0,0,.06,0,0,0,0v0s0,0,0,0,0,0,0,0h.06s0,0,0,0h0l0,0s0,0,.05,0,0,0,0,0,0,0,.06,0m8.13-3.32h0c.1,0,.12,0,.19,0H129l.13,0,.05,0,.14,0,.05,0h0l.09,0a.21.21,0,0,1,.11,0h0l.06,0h0s0,0,0,0h0l0,0h0s0,0,0,0h-.06l0,0-.05,0h0l0,0h-.06s.05,0,0,0h0s0,0,0,0h0a.16.16,0,0,0-.1,0h-.05s-.05,0-.05,0h-.08v0h-.07s0,0-.06,0-.07,0-.11,0,.06,0,0,0,0,0-.06,0l0,0h0l-.09,0v0h0s0,0,0,0h0s0,0-.07,0l0,0,0,0v0h0s0,0-.06,0l0,0h0v0l-.06,0h.05s0,0,0,0h0l-.05,0h0s0,0-.05,0h-.05l0,0s0,0,0,0l-.11-.05h-.09l0,0h0l0,0h0a.1.1,0,0,0-.08,0h0s.05,0,.09,0l.11,0h.14s-.1,0-.11,0h-.05a.84.84,0,0,0-.18,0h.06a.41.41,0,0,1,.15,0h0v0h.07l0,0h0s-.09,0-.15,0l0,0h.18m-11.89-.63-.09.08a.25.25,0,0,0,.17-.06s0,0-.08,0m2.07-.73a.52.52,0,0,0,.23,0s.07-.08,0-.09a.3.3,0,0,0-.21,0s0,0,.06,0h.07c.06,0-.08,0-.2,0s0,0,.08,0m.26-.15s.12,0,.18,0,.06.06,0,.08-.09.13.1.1.17-.07.19,0,0,0,.13,0,.16-.07.22-.07,0,0,0,0,0,0,0,0,.15,0,.23,0a.72.72,0,0,0,.25,0,.17.17,0,0,1,.11,0h.08c.07,0-.05-.11,0-.06s.06,0,.17,0,.26,0,.16-.05-.06-.11-.19-.11-.09,0-.13,0a.27.27,0,0,0-.11,0,.4.4,0,0,1-.14,0h-.1a.25.25,0,0,1-.14,0,.39.39,0,0,0-.19,0h-.11a.24.24,0,0,0-.1,0s-.09,0-.1,0,0,0-.07,0-.06,0-.06,0-.19,0-.1,0,.2-.1.08-.08-.08,0-.09,0,0,0-.08,0a1.68,1.68,0,0,0-.26,0c-.07,0,.07.06,0,.1m-.31-.29c-.06,0-.11.05,0,.07s.17-.06.23-.08.18,0,.16-.07.08-.09-.1,0-.35.07-.32.11h.08s0,0,0,0m1.93.57a.3.3,0,0,0,.18,0c.06,0,.11,0,.17,0s-.07,0-.14-.07-.11,0-.2,0-.09,0-.06.07,0,.06.05.07m-1-.51c.05,0,.06,0,.08,0s0,0,.09,0,.12,0,.1-.05.06,0,.14,0h.1a1,1,0,0,0,.29-.1c.09,0,.2,0,.13,0s0,0,.07-.08-.07,0-.15,0-.13,0-.08,0,0,0-.13,0a.5.5,0,0,0-.21.07c-.06,0-.15,0-.28.07s.07.09-.07.12,0,0-.11,0,0,0,.06.05m2.64,4.76s0,0-.07,0,0,0,.05-.06,0,0,0,0l-.1.06h0l0,0s0,0,0,.05,0,.07,0,.12,0,0,.06,0,0-.08,0,0a.12.12,0,0,0,0,.09s0,0,0,0h0l.06-.05s0-.06,0-.08,0-.06,0-.09m0-.19s0,0,0,0a.1.1,0,0,1-.07,0h-.06s.06,0,.06,0h0s0,0,0,0-.08,0-.12,0h-.07s-.09,0-.07,0l0,0h0s-.06,0,0,0,0,0-.07,0,.11,0,.14,0,0,0,0,0h-.07a.52.52,0,0,0-.13.09s.06-.08.09-.1,0,0,0,0l0,0,0,0,0,0,0,0,0-.05s0,0,0,0,0,0,0,0,0,0,0,0,0,0,0,0h0a.25.25,0,0,0-.09,0s0,0-.07.07-.06,0,0,0,0,0-.07.05l-.15.17s0,.07-.07.09,0,0-.07.06-.05,0,0,0,0,0,0,0-.07,0-.12,0,0,0-.08.07h0l0,0s.05,0,.09,0,0,0,0,0a.38.38,0,0,0-.12.05s0,0,0,.07,0,0,0,0a.26.26,0,0,1,.13,0s.05,0,.06,0l.06,0a.16.16,0,0,0,.09,0h0l.06,0s0,0,0,0h.07s0,0,.07,0,0,0,0,0v0s0,0,0,0,0,0,.05,0,.09,0,.06,0-.07,0-.07.06-.06,0-.09.05,0,0,0,0h0l.1,0s0,0,.05,0,0,0,0-.06l0,0h0s.06,0,.08-.06,0,0,0,0,0,0,.09,0-.08,0-.06,0a.13.13,0,0,0,.09,0s0,0,0,0m-3.78-4c.12,0,.22,0,.26,0a.61.61,0,0,1,.22-.12c.07,0-.05,0-.14,0h-.09a.55.55,0,0,0-.22,0c-.07,0-.16,0-.15.1s-.1.06-.06.09.07.05.1,0,.11,0,.07-.06-.11-.05,0,0m.26,1.32c-.06,0,0,0,.09,0s0,0,.13,0-.07,0,0,0,0-.06-.06-.07-.08,0-.07-.07-.13,0-.13-.08-.09,0-.12,0,0,0,0-.06,0-.05-.06,0a1.17,1.17,0,0,0-.19.11c-.07,0-.18.09-.15.16-.2,0-.24.07-.26.1s.08,0,.15,0,.07,0,0,0-.07,0,0,0a.34.34,0,0,0,.17,0c.06,0,.07-.09.13-.09s.12,0,.15-.06,0,0,.05,0a.11.11,0,0,0,.08,0c.08,0,.06,0,0,0h0c.06,0,.13,0,0,0m3.85-.7c-.11,0,0-.11-.12-.06s-.11.06-.1,0,0-.06-.06,0,0,0,0,0,0,0,0,0,0,0,0,0,0,0,0,0,0,0,0,0,0,0-.05,0-.07,0-.09,0,0,0-.07,0,.17,0,.13-.07-.09,0-.15,0a.25.25,0,0,1-.12,0c-.05,0,.31-.06.25-.1s0-.06-.07-.1-.09,0-.2,0-.09,0,0,0,.18-.08.12-.09a.14.14,0,0,0-.15,0s0,0,0,0,0-.07,0,0,0,0-.06,0a.15.15,0,0,0-.13,0,.16.16,0,0,1-.08,0h-.08s0,0-.06-.05a.13.13,0,0,0-.12-.05c-.15,0-.28,0-.17.09s-.09,0,0,.09.05.05,0,0h0s-.11-.09-.12-.06,0,0,0,0,0-.07-.08,0-.06,0-.07,0,0,0,0,0-.18.11-.13,0,.11-.1,0-.09,0,0,0-.06,0-.08-.06-.07a2.43,2.43,0,0,0-.32,0,1,1,0,0,0-.19.05c-.08,0-.28,0-.14.05s-.31,0-.12.12-.24,0-.21.13a.08.08,0,0,1,0-.15c.08,0,.08-.08.14-.12s.12-.09,0-.09a1.14,1.14,0,0,0-.32,0l-.14.06c-.08.06-.05.07-.19.12s0,.1,0,.11,0,.19.17.14.1,0,.19,0,.05,0,.13,0,.11,0,.16,0l.09,0s-.07.06,0,.06h0s0,0,0,0,0,0,.06,0,0,0,.06,0,0-.12,0-.08,0,.1.14.07-.12-.07-.05-.08a.1.1,0,0,1,.08,0,.1.1,0,0,0,.09,0c.07,0,0-.13,0-.13s.13.11.15,0,0,0,0,0a.08.08,0,0,0,.06,0,.07.07,0,0,1,.07,0s0,0,.06,0,0,0,0,0,0,0,0,0,.14,0,.07,0-.13.08,0,.08.06,0,.06,0,0,0,0,0h0s.06,0,.08,0,.09,0,.1.05.09.1,0,.13-.09,0-.18.05-.22.07-.13.08.14.06.21,0,.14-.12.14-.06,0,.08.09.08,0,0-.06,0h-.08s0,0-.1,0-.14.09-.12,0,0,0,0-.08,0-.05,0-.06-.15-.06-.19,0-.13,0-.15.06.13.06.14.11-.22-.05-.19,0,0,0-.08,0-.08,0-.06,0,0,0-.09,0-.12,0-.08,0,0,0-.11,0-.22,0-.14,0,0,0-.09,0-.13,0-.07,0,0,0-.05.11,0,0,0,.08,0,0,.08,0h0s.08,0,.06,0,.08,0,0,0h0s.08,0,.05,0,0,0,.08,0,.13,0,.11,0-.09-.13-.06-.09.08.08.14,0-.11.06,0,.08.2,0,.24.06.08.06.12,0,0,.06.06.07.18.06.2,0,0,0,.06,0h.1s.21.1.26.06.06,0,.09,0a.11.11,0,0,0,.09,0c.06,0-.06,0,0-.07s.06,0,0,0,0-.07-.12-.07,0-.06-.14-.09c.15,0,.23.05.26,0s0,0,.07,0,.05,0,.06,0,0,0,.06,0,0,0,.06,0,0,0,0-.06.07-.05,0-.08.09,0,0-.07,0-.08-.14-.07-.11,0-.06,0-.06-.11,0-.08.08,0,.06,0,0-.06,0,0,0,0,.09,0,.1,0,.11,0,0,0,0,0h0s0,0,.09-.06-.07.09,0,.1,0,.07.06,0,0,0,0,0,0,0,.05,0,0-.06,0-.09h0s0,0,0,0h0s.06,0,0,0,0,0,0,0,.07,0,.06,0,0,0,.07,0,.07,0,0,0,0,0,.06,0,.09,0,.07,0,0,0,.08,0,.09,0,.07,0,.17,0,.06-.06m-5.71-.26h0l-.11.1h0c.09,0,.23-.07.12-.09m3.86,4.11h0s-.12.1-.16.12,0,0,0,.1,0,0,0,0h.13s.05,0,.1,0,0,0,0-.06,0,0-.08,0,0-.08,0-.08M119,10.39a.26.26,0,0,1,.12,0h.07s0,0,0-.09-.18,0-.29.11,0,0,.12,0m1.48-.15c-.14,0-.19,0-.14.07a.26.26,0,0,0,.15,0h.11c.07,0-.1,0-.2,0s.23,0,.14.05a.44.44,0,0,1-.22,0,.43.43,0,0,0-.26,0c-.09,0,0,.05-.08.06a1,1,0,0,0-.24,0c-.08,0-.06.05,0,.06a.37.37,0,0,0,.14,0,.21.21,0,0,1,.13,0,.54.54,0,0,0,.28,0c.1,0,.12-.07.18-.07s.16.06.22,0a.13.13,0,0,1,.1,0,.22.22,0,0,0,.1,0c.09,0,.12-.08.19-.08s.24,0,.17,0-.12-.08,0-.07.2,0,.16,0,0,0,.05,0a.24.24,0,0,0,.12,0,.13.13,0,0,1,.08,0s.27.06.32,0a.13.13,0,0,1,.17,0,.23.23,0,0,0,.2,0,.23.23,0,0,1,.17,0,.43.43,0,0,0,.24,0,3.51,3.51,0,0,0,.5-.13,1.54,1.54,0,0,1,.41-.11c.12,0,.38-.11.06-.11a.75.75,0,0,1-.25,0,.4.4,0,0,0-.2,0c-.24,0-.33.1-.53.06a.49.49,0,0,0-.27,0,.26.26,0,0,1-.13,0h-.12a2,2,0,0,0-.33,0,.53.53,0,0,1-.18,0h-.1c-.07,0-.16,0-.23,0a.2.2,0,0,1-.1,0,.14.14,0,0,0-.08,0s-.17,0-.2,0-.25,0-.31.08,0,0,.1,0a.34.34,0,0,1,.15,0c.06,0,.09,0,.16,0h.05s0,0,0,0,.08,0,.16,0h.12s.07,0,0,0a.4.4,0,0,1-.22,0c-.08,0-.12,0-.23.05s0,.14-.06.12H121s0,0,0,0-.14,0-.2,0c-.25,0,.14,0-.27.07m-3.06.85a.21.21,0,0,1,.14,0,.09.09,0,0,0,.09,0h0c.13.05.12,0,.18,0s0,0,.1,0l.09-.06c.11-.06,0-.06,0-.07s.11,0,.17-.06,0,0,0,0h0s.12,0,.09,0-.07,0-.12,0h-.38s-.14,0-.09,0,.11,0,.11.06,0,0-.1,0a.68.68,0,0,0-.31,0s.06.11.09.1m.43-.41a.17.17,0,0,0,.15,0c.05,0,.09,0,.09,0s.07.05.16,0,0,0,.06,0,0,0,.11,0,.07,0,.11-.12.13,0,.23-.09-.17,0-.28,0a.26.26,0,0,0-.2.1c-.06.05,0-.06,0-.13s-.09,0-.21,0-.07.08-.07.14,0,0,0,0l0,0h-.17l-.05,0,.08,0c.06,0-.09,0,0,.09m25.39,11.25s-.1,0-.11-.15,0-.06,0-.06,0,0,0,0,0,0,0,0,0,0-.1,0-.26-.13-.26-.16-.08-.06-.17-.16,0-.2-.07-.18.06-.13,0-.13,0,0-.11.1,0,.1-.22.26,0,.09-.05.08,0,0,0,0,0,0,0,0,0,0,0,0,0,0-.05,0h-.12c-.16,0-.18,0-.18,0s0-.15-.1-.13,0,0,0,0v0s0,0,0,0-.05-.13,0-.16-.07-.13-.09-.16-.06,0-.08.07h0s0,0,0,.19c-.07-.07-.1-.09-.11-.15s-.08-.11-.07-.17,0-.08,0-.11,0,0-.12-.1-.12-.06-.08-.08,0-.07-.09,0,0-.07-.1-.25-.13-.2-.18-.17.13-.12.08-.15,0-.07-.08-.1,0-.06.07,0,0,0,.1,0,0,0,0-.08,0,0,.08.09a.06.06,0,0,0,.08,0s0,0,.12.09.15.07.16.13.12.07.14.19,0,0,.09.1.08,0,.11.06,0,0,0,0,0,0,0,0,.06,0,.15.13.09.07.13.06a.14.14,0,0,1,.1,0,.17.17,0,0,0,.15,0h.1s.06,0,.09,0a.17.17,0,0,1,.18,0c.18,0,.09.12.17.2s.07.18.17.17a.17.17,0,0,1,.09,0,.23.23,0,0,0,.16,0,.27.27,0,0,1,.19,0s.05,0,.07,0,.08,0,.1,0c-.08-.34-.13-.69-.24-1s-.16-.66-.29-1-.2-.67-.35-1-.23-.62-.41-.93-.31-.68-.5-1-.33-.59-.54-.89-.38-.6-.6-.88-.44-.58-.67-.85-.43-.51-.67-.77-.56-.54-.82-.79a3.46,3.46,0,0,0-.53.09h0s0,0,0,0,0,0,0,.08,0,0,0,0h0a.05.05,0,0,1-.06,0h-.13s-.08,0-.14-.05-.16-.1,0-.07,0,0,0-.07,0,0-.05-.06a1.93,1.93,0,0,0-.29-.07s.06,0,.14.14,0,.12.07.13.07,0,.07,0,.05.17,0,.11,0,0-.07,0,0,0,0,0-.07,0-.14,0,0,0,0,0,0,0-.15,0-.11,0-.15,0-.06,0-.08,0,.28.09.25.15h0a.14.14,0,0,0-.08,0,.13.13,0,0,1-.1,0,.29.29,0,0,0-.18,0c-.06,0,0,0,0,0s0,0,0,0h-.08s0,0,0,0-.07,0,0,0,0,0,.15.06.15.05.11.05,0,.06-.06,0-.22,0-.26-.06-.08,0-.16,0,0,0,0-.05,0,0-.05,0,0,0,0-.06,0,0,0-.06,0,0,0,0a.07.07,0,0,1-.07,0,.12.12,0,0,0-.09,0,.18.18,0,0,1-.09,0c-.13-.05.07,0-.06-.06s0,0,0,0-.18,0-.19-.05,0,0,0,0h.17s0,0,0,0,0,0,0,0l0,0s0,0,.05,0-.07.06.42.09a4,4,0,0,1,.45.06.63.63,0,0,0,.2-.1s0,0,0,0-.1-.11-.11-.11h0l0,0a.33.33,0,0,1-.11,0,.28.28,0,0,0-.19,0,.39.39,0,0,1-.22,0c-.08,0-.16-.06-.2,0s-.12,0-.21,0a.58.58,0,0,0-.2,0h-.18a.06.06,0,0,1-.05,0h0a.76.76,0,0,1-.17,0h.11s-.18-.08-.15,0,0,0,0,0a.17.17,0,0,0-.1,0l-.15,0s.21,0,.17,0a.13.13,0,0,0-.14,0l0,0s0,0-.07,0h-.07s.07-.05,0-.08,0,.06-.07.08,0,0,0,0,0,0,0,0,0,.07-.11.12,0,0,0-.06,0-.08,0-.07,0,0-.05,0,0,0-.08,0,.06,0,0,.13c0-.12-.09-.11-.14,0s-.06,0-.09,0a.1.1,0,0,1-.08,0h-.13s0,0-.06,0,0,0-.06,0,0,0,0,0,0,0-.06,0a.14.14,0,0,0-.08,0,.07.07,0,0,1-.07,0,.09.09,0,0,0-.07,0h-.05a.19.19,0,0,0-.09,0,.18.18,0,0,1-.1,0s0,0-.07,0,0,0-.1,0,0,.06-.09.07,0,0-.1,0-.06,0-.11,0,0,0-.09,0,0,.06-.06.07,0,0-.06,0,0,.07-.12.09,0,.05-.09.09,0,.05-.09.07,0,0-.1.06,0,0,0,0,.07,0,.18,0c0,0-.07,0,0,.06s-.07,0-.09,0,0,0-.07,0,0,0-.06,0-.11,0-.11,0a.1.1,0,0,0-.13,0s0,0-.1,0-.06,0,0,.07-.07,0-.11,0-.09,0-.16.07H131s0,0,.05.07c-.12,0-.1.07,0,.07h.05a.13.13,0,0,1,.09,0h.1c.09,0,.1,0,.1,0s0,0-.07,0h-.13a.11.11,0,0,0-.08,0H131c-.09,0,0,0,0,0s0,0,.07,0-.08,0-.08,0,0,0,.05,0h0s0,0,0,0,0,0,0,0,0,0,0,0h0s0,.06-.06,0-.05,0,0,.13c0-.07,0-.05,0,0h0c.06,0,0,0,.12-.07-.09.1-.1.08,0,.14l0,0s0,0-.07,0,0,.07.08.11.05.06.14,0c-.11,0,0,0,.06.05s0,0,0,0a.11.11,0,0,1,.08,0c.06,0,0,0,.15,0s.08-.05.14-.07.09,0,.06-.13.06,0,.11,0,0-.05,0-.12,0,0,0-.07a.32.32,0,0,0,0,.13s0,0,.05,0h.06c-.09,0,0,0,0,.09s.06,0,.06.07,0,0,0,0,0,0,0,0,0,0,0,0,0,0,0,0,0,.11.09.15,0,0,.06.06,0,.08,0,0,0,0,.07.09,0,.15.15.1a.14.14,0,0,1,.1,0s.06,0,.07,0,0,0,0-.08,0,0,0,0h0s.06,0,.15,0,.08-.09.08-.1,0-.13,0-.17-.05-.1,0-.13,0,0,0-.07,0,0-.08-.06,0,0,.08,0,.12,0,.08,0,.06.07.08,0h0s0,0,.08-.09c-.13,0-.06,0-.22,0a.15.15,0,0,1,.12,0s.05,0,.09,0,0,0-.05-.07,0,0-.11-.06,0,0,0,0,0,0-.07,0,0-.14,0-.19,0-.07,0-.16,0,0,0,0,0,0,0,0,0,0,0,0,0,0,0,0a.07.07,0,0,1,.07,0s0,0,.07,0l0,0s0,0,0,0a.05.05,0,0,1,.06,0,.05.05,0,0,0,.06,0c0-.07,0,0,.09-.1s-.06-.05,0-.11.05,0,.07,0h0s0,0,0,0h0a.08.08,0,0,1,.07,0s0,0,.05,0h0s0,0,0,0,0,0,.06,0,.2,0,.21.09.06.05,0,.07h-.07s0,0-.07.05,0,0-.09,0h-.1s0,0,0,0l0,0s0,0,0,0l0,0s0,0,0,0-.06,0,0,0,0,0,0,0-.07,0,0,0,0,0,0,0,0,0,0,0,0,0,0,0,0,0,0,0,0,0,0,.08,0,.08.06.06,0,0,0,0,0,.06.09,0,0,.09,0,.07,0,.06,0,.06l.06,0,.07,0c.06,0,0,0,.09,0a.11.11,0,0,1,.09,0s0,0,.06,0h0a.07.07,0,0,0,.08,0s0,0,.07,0a.22.22,0,0,0,.14,0s0,0,.06,0a.26.26,0,0,0,.16,0c.12-.05.08,0,.05,0s.08,0,.1,0a.07.07,0,0,1,.07,0,.07.07,0,0,0,.08,0,.08.08,0,0,1,.07,0h0v0l-.05,0c-.08,0-.13,0-.15,0s0,0-.06,0,0,0,0,0,0,0,0,0l0,0s0,0,0,.06,0,0-.09,0a.15.15,0,0,0-.08,0,.11.11,0,0,1-.11,0s0,0-.06,0,0,0,0,0,0,0,0,0h0s0,0,0,0,0,0,0,0,0,0,0,0h0c-.06,0,0,0-.1,0s0,0,0,0,.07.05.07.05l0,0s.06,0,.06.07.05,0,.06,0,.05,0,0,.06,0,.08,0,.12-.06,0-.08.05,0,0-.09,0,0-.07-.07-.08-.06-.06-.08-.06,0,0-.07,0-.06,0-.11.08,0,.09,0,.14,0,.08,0,.14,0,.1,0,.14-.05,0-.05,0,0-.05,0,0a.12.12,0,0,1-.09,0h-.06s0,0,0,0l0,0h.05l-.05,0,0,.05h0l0-.05h0l0,0s-.05,0-.08,0,0,0,0,0,0,0,0,0h0a.22.22,0,0,0-.08-.06h-.19a.27.27,0,0,0-.15.06.15.15,0,0,1-.1,0h-.07l-.16,0c-.1,0,0,.07-.08.07h0c-.05,0,0,0-.07,0s0,0,0-.06,0,0,0,0h0s0,0-.06,0l-.07,0s0,0,0,0h0s0,0,0,0,0,0-.09,0-.06,0-.09,0-.05,0-.07,0-.06,0-.09,0h-.07c-.06,0,.09,0,0-.07h-.05s0,0-.05,0,0,0-.06,0,0,0,0,0h0s0,0,0,0,0-.07,0-.07,0,0,0,0,0-.07,0-.06,0,0,0,0l0,0s.06,0,0,0-.05,0-.08,0h0s0,0,0,0,0,0,0-.06,0,0-.05,0h0s0,0,0,.06,0,0,0,0,0,0,0,0,0,0,0,0,0,0,0,0,0,0-.06,0,0,.06,0,.07v0a.06.06,0,0,0,0,.05h0l0,0s0,0,0,.05,0,0,0,0l0,0v.07l0,.06h0s0,0,0,0,0,0,0,0v0s0,0,0,0,.05,0,.08.05,0,0-.07,0h-.07s0,0,0,0,0,0,0,0h0v0l0,0v0s0,0-.08,0h0s0,0-.07,0,0,0,0,0l0,0v0a.06.06,0,0,0-.06,0h-.1l0,0s0,.05,0,.05,0,0,0,0,0,0,0,0,0,0,0,0h0v0h0s0,0,0,0h0s0,0,0,0a.27.27,0,0,0,0,.1.31.31,0,0,1-.06.1s0,0,0,0,0,0,0,0l0,0s0,0,0,0H131s0,0-.05,0a.77.77,0,0,0-.12.07.15.15,0,0,1-.1,0h-.09c-.05,0,0,0,0,0l0,0s0,0,0,0-.07,0-.12.05a.15.15,0,0,0-.09,0s0,0-.06,0,0,0,0,0,0,0,0,0l-.05,0,0,0s0,0,0,0l0,0s0,0,0-.06l0,0h0s-.05,0,0,0,0,0,0,.06a.1.1,0,0,1,0,.07s0,0,0,.06,0,0,0,0-.08,0-.09,0h-.13s0,0,0,0,0,0-.07,0-.05,0-.06,0,0,0-.08,0h-.08v0l.06,0s0,0,0,0-.07,0,0,0,0,0,0,.05h.1s.07,0,.08,0,0,0,.08,0l0,0,0,0s.08,0,.05,0,0,0,0,0,0,0,0,0v0s0,0,0,.08,0,0,.1,0,0,.06.08,0,0,0,0,.06,0,0,0,.06,0,0,.06.15c0,0-.07-.11-.08,0a.54.54,0,0,1,0,.18,1.74,1.74,0,0,0-.06.19.06.06,0,0,1-.06,0h0s0,0-.07,0a.21.21,0,0,1-.09,0l-.1,0h-.06l-.07,0s0,0-.07,0h-.09l-.21,0s0,0,0,0,0,0,0,0a.58.58,0,0,1-.18,0s-.12,0-.11,0h0l-.06,0s0,0,0,0,0,0,0,0h-.07s0,0-.07,0,0,0,0,0,.08,0,0,.05,0,0,0,0,0,.07,0,.06,0,0,0,0v.09s0,0,0,.06,0,0,0,.08,0,.11,0,.16l0,.13c0,.06,0,0,0,.08s0,.06,0,.06h0s0,.07,0,.11,0,.06,0,0,0,0,0,0,0,0,0,.06,0,0,.09,0,0,0,0,0,0,.08,0,.12h0s0,0,0,.07,0,0,0,.07,0,0,0,0h.14s0,0,.09,0,.06,0,.07,0a.07.07,0,0,0,.06,0H129a.14.14,0,0,1,.09,0s0,0,0,0,0,0,0,0l0,0v.06s0,0,.07,0h0c.05,0,0,0,.1-.06a.44.44,0,0,1,.17,0s0,0,.09,0a.33.33,0,0,1,.13,0H130S130,18,130,18a.34.34,0,0,1,.09-.07s0,0,.07,0a.07.07,0,0,0,.06,0v0l0,0s0-.06,0-.05,0-.08,0-.08.07,0,0-.05,0,0-.07,0a.11.11,0,0,1,0-.15.22.22,0,0,1,.07-.07.78.78,0,0,0,.11-.11s0,0,0,0,0,0,0-.06a1.23,1.23,0,0,1,.23-.1s0,0,.06,0a.16.16,0,0,1,.11,0l0,0,0,0s0,0,0,0,0,0,0,0-.06,0,0,0,0,0,0,0l0,0,0,0s0,0,0-.05,0,0,.05-.06.09-.09.11-.08a.09.09,0,0,0,.07,0s.06,0,.1,0,0,0,.05,0,.08,0,.08,0,.07.06.08,0,.05,0,.08,0,0,0,0-.05,0,0,0,0l.08,0v0a1,1,0,0,0,.17-.09s.12,0,.26,0,.11.12.16.15,0,.06.05.08a.29.29,0,0,1,.12.14s0,0,.08,0,0,0,.06.07.08,0,.08.05a.08.08,0,0,0,0,.06l.12.1s.08,0,.12,0,.06.11.11.06l0,0,0,0s.11,0,.09,0,0,0,.06.05,0,0,.08,0,0,0,0,.05.07.12.08.16.07,0,0,.08,0,0,0,.12,0,.07,0,.08.09,0,.11-.09.06-.06.08-.1,0-.05,0-.08h.06s0,0,0-.06a.09.09,0,0,0-.06-.06s0,0,0,0v0s0,0,0-.06,0,0,.05,0h.09s.05.06.08.08,0,0,0,0,0,0,0-.07a.4.4,0,0,0-.12-.06s0,0-.09-.08a1.27,1.27,0,0,0-.19-.08c-.08,0,0,0,0-.06s0,0,0,0h-.14s-.07,0-.12,0l-.12-.1a1,1,0,0,1-.11-.18.52.52,0,0,0-.1-.13s-.09,0-.13-.06,0-.08,0-.11,0-.05,0-.05,0,0,0-.07,0,0,.1,0,.05,0,.07-.05h0l0,0s0,0,0,0,0,.09,0,.12,0,0,.06,0l0-.09s.06,0,.05.12.06.06.12.1.09,0,0,0,0,0,.11.11,0,0,.12.08,0,0,0,0h0l.13.09s0,0,0,0a.78.78,0,0,0,.15,0h.1s-.08,0,0,0,.05.05.09.06l.06,0,0,0s0,0,0,0,0,0,0,.08,0,.07,0,.07,0,0,0,0,0,0,0,.07,0,0,.06.06,0,0,0,0,0,0,0,0,0,0,0,.07.07,0,.08.05.08.07.08.08v0s.07,0,.08,0,0,0,0,.05,0,0,.06.07,0,0,0,0h0s0,0,0,0,0,0,0,0-.06,0-.06,0,0,0,.05.06,0,0,0,0h0a0,0,0,0,0,.06,0s0,0,.1,0,0,0,.07,0,0,0,0,.06l-.07,0h-.09a.06.06,0,0,0-.06,0h0l0,0,0,0s0,0,0,0a.06.06,0,0,1,0,.06s.14.07.07.1.06.05.11.1,0,.05.06,0,0,0,0,0,0,0,0,0,0,0,.06,0,0,0,0,0,0,0,0-.06,0-.05,0-.06,0-.07,0,0,0,0,0,0,0,0,.06,0,0,0,0,0,0,0,0-.05,0,0,.07,0,0,0,.06,0,.06.07.05,0,0,0,0-.08,0-.06-.08-.06a.09.09,0,0,1-.07,0,.1.1,0,0,0-.09,0s0-.06,0-.06,0,0,0,0,0,0,0,0,0,0,0,0,0,0,0,0l0,0s0,0,0,0,0,0,0-.09,0,0-.06-.05,0,0,0-.06,0,0,0-.07,0,0,.06,0H135s0,0,0,0,0,0,0,0,0,0,0,0,0,0,0,0,0,0,0,0,0,0,0,0,0,0,0-.06.06,0,.07,0h.07s.07,0,.06,0h.2s0,0,.06,0,0,.07,0,.06.05,0,.11-.06.05,0,0,0-.06,0-.1.07,0,0,.06,0l.13-.07c.05,0,0,0,0-.06s0-.05.07-.06H136s0,0,.05,0,0,0-.08,0a1.06,1.06,0,0,1-.17-.13s0,0,0,0,0,0,0,0-.07-.06,0-.06l0,0s0,0,0-.05h0s0,0,0,0,0-.07,0-.1,0,0,0,0,0,0,0,0,0,0,0-.06a.34.34,0,0,0,0-.08s0,0,0-.07,0,0,0,0,0,0,0,0,0,0,0,0l0,0,0,0v-.06a0,0,0,0,0,0,0c.08-.05,0,0,0-.06s.06,0,.07-.07,0,0,0,0,0,0,0,0,0,.05,0,0,.08-.07.15-.07,0,0,.15,0,.1,0,.1,0h-.13s-.06,0,0,0-.11,0,0,0h0l.06,0a.16.16,0,0,0,.1,0h0s.06,0,.06,0,0,0,0,0a.53.53,0,0,0-.14.08s0,.07,0,.05.07.06.15.06,0,.09,0,.11c.21.09.12,0,.21-.06h.07s0,0,0,0,.07,0,.11,0,.07,0,.08,0h0s.08,0,0,0-.1,0-.15,0a.1.1,0,0,1-.09,0H137c.06,0-.1-.09-.11-.1s0,0-.06,0-.07,0,0,0h0s0,0,.08,0,.11,0,.07,0-.14,0-.06,0a.15.15,0,0,0,.1,0,.11.11,0,0,1,.1,0c.08,0,0,0,.11,0s.05,0,.06,0,0,0,.06,0,0,0,.07,0,0,0,.05,0l.06,0c.25-.06.25,0,.18,0s-.16.07-.18.07,0,0,.07.07.07.08,0,.08a.08.08,0,0,0-.11.06c0,.08-.07.08-.1.08s0,0,0,0,.28.08.52.28.07,0,.29.14.15,0,.19.11.07,0,.08.14a.38.38,0,0,0,0,.1c-.16.18-.26.15-.35.13a.2.2,0,0,0-.13,0,.38.38,0,0,1-.25,0l-.06,0c-.08,0,0-.05-.13-.06s-.06-.08-.18-.08a.14.14,0,0,1-.11,0s-.05-.06-.1,0a.23.23,0,0,1-.15,0,.35.35,0,0,0-.21,0c-.12.08-.21,0-.31.12s-.14,0-.23,0-.17-.05-.2,0,.11,0,.23.09c-.07,0-.29,0-.2,0s-.18,0-.21,0h-.06s0,0,0,0-.1,0-.16.06-.1,0-.07.05-.09.09.1.08c-.14,0,0,.07,0,.09s.06,0,0,.05.07.09,0,.08h0s0,0,0,0-.08,0,0,0,0,.14,0,.1.07,0,.11,0,0,.13.07.13.06.06.1,0a0,0,0,1,1,0,.05c-.05,0,0,0,0,0h.16s-.18,0-.13.07h0s.06,0,.07,0l.13,0s.16,0,.11,0,.12.15.14.11.2,0,.16-.11.07-.07.15,0,.14,0,.24.14.22,0,.22,0,0,0,.1-.13.09,0,.22,0l0,0s0,0,.06,0-.08,0,0,.14-.08,0,0,.09-.06,0,.08.29c0,.09-.08.07-.08.14s-.06.09-.06.18,0,.07,0,.17,0,.06-.05.19a.19.19,0,0,1-.25.09h-.09a.47.47,0,0,1-.27-.06.1.1,0,0,0-.09,0,.09.09,0,0,1-.07,0s-.21,0-.18.06-.07,0-.15.09-.06,0-.13,0,0-.09-.11,0-.1,0-.17-.06a.53.53,0,0,0-.32,0c-.08,0-.15,0-.18,0a1.14,1.14,0,0,0,0,.26,1.14,1.14,0,0,1,0-.26s0-.06-.08,0-.08,0-.08,0,0,0-.08,0,.06,0-.15-.1-.17,0-.17,0h0c-.12,0,.08,0-.1,0s-.19.05-.28.11-.09.17,0,.18,0,.28-.12.29-.06,0-.25-.12-.29-.08-.37-.12a.15.15,0,0,0-.08,0c-.07,0-.14,0-.17-.16s0-.09-.07-.09a.11.11,0,0,1-.1,0,.12.12,0,0,0-.13,0,.13.13,0,0,1-.12,0,.12.12,0,0,0-.14,0,.18.18,0,0,1-.15,0L132.6,19c-.08,0-.05-.06-.09-.08s.08,0,0-.06,0,0,0,0-.19,0-.15-.12.1,0,.2-.13,0-.13,0-.19-.08,0-.1-.17,0,0,0-.12,0,0,0-.07,0,0-.12,0,0,0-.07,0,.06-.07,0-.07,0-.08-.13,0-.07,0-.22.08-.09,0-.1,0h0c-.13-.06,0,0-.08,0a0,0,0,0,1,0,0s0,0-.06,0-.06,0-.14.05,0,0,0,0,0,0-.06,0a.29.29,0,0,1-.12,0,.15.15,0,0,0-.1,0l-.06,0-.05,0s0,0-.07,0h-.14c-.21,0-.13,0-.22,0s-.16.13-.23.14-.05.15-.17.05,0,0,0,0,0,0-.06,0-.07,0-.07,0,0,.05,0,0-.06,0-.06,0,0,0-.06,0h-.06c-.06,0-.07,0-.07,0s0-.06,0,0-.08.07-.1.05h0a.21.21,0,0,1-.12,0,.18.18,0,0,0-.09,0,.12.12,0,0,1-.1-.06s-.05-.08-.1,0-.1.06-.19.25c-.21.44-.44.26-.49.45s-.11.11-.23.42.12.15.09.25-.31.26-.37.39-.32,0-.42.2-.07.08-.11.21c-.09.31-.13,0-.26.37s-.29.35-.34.62-.12.25-.19.44,0,.09,0,.07,0,0,0,0,0,.16,0,.15.07.13.07.14,0,0,0,.12,0,.09,0,.07,0,.06,0,.07a.56.56,0,0,1,.08.43c0,.17-.12.17-.06.33a1.92,1.92,0,0,1-.13.26.65.65,0,0,1-.14.18c0,.05-.12.05,0,.08s0,0,.07.06,0,0,0,.06,0,0,.05,0,0,0,.08,0-.11,0-.06.05,0,0,0,.08,0,.1.07.09-.06-.06.19-.07c-.22,0-.09.06-.17.09h-.06s0,0,0,0,0,.14,0,.11.06,0,.07,0h0s.06,0,.07,0h0a.08.08,0,0,1,.07,0,.08.08,0,0,0,.06,0H127s-.05,0-.06,0h0c-.05,0-.05,0-.06,0h0c-.11,0,0,0-.09,0s0,.06,0,.08,0,0,.1,0-.1,0,0,.06.05,0,.06,0h0s0,0,0,0,0,0,.08,0,.08,0,.1,0-.05,0-.16.05,0,.07.05.05,0-.07.1-.06c-.08,0,0,.08,0,.06s0,0,0,0,0,0,.06.06,0,.16.1.15.09.08.07.11,0,.13.1.13c-.08,0,.07.17.13.16s-.08.06,0,.08.05,0,0,.06.06.06,0,.05v0s0,0,0,0,0,.07,0,.07.06.06,0,.07,0,0,0,.07.06,0,.07,0h0s0,0,0,0h0s.07.05,0,0,0,0,.05.05a.27.27,0,0,0,.15.05c.16.09,0,0,.07.09s.07.1.16.1,0,.07.12.15.09.13.17.16,0,0,.08.05.09.14.25.11c0,0,0,.08.09,0s.26-.08.26-.21c.06.14.13,0,.39,0h.23s0,0-.07,0-.05,0-.07,0,0,0,0,0h0c.06,0,.05,0,.07,0s0,0,.11,0a.48.48,0,0,0,.14,0c.16,0,.09.05.17.05s0,0,.17,0a.39.39,0,0,0,.24-.08c.07,0,.09,0,0-.07a0,0,0,0,1,0,0s0,0,.11-.09.13,0,.18,0,.1,0,.07,0,.05,0,0,0H131c.08,0,.09,0,.09,0s0,0,.08,0c-.09,0,.05.05.09,0s.25.08.22.13.05,0,.05,0-.07,0,0,.05,0,.08,0,.06,0-.07.08,0,0,0,0,.06-.07,0,0,.05,0,0,.05.06a.51.51,0,0,0,.18.09s0,0,0,0,0,0,0,0,0,0,0,0h0s0,0,.05-.07.1.05.09,0,.13,0,.09,0,.06,0,.09.05h0s0,0,0,0,0,0,.1.11.06,0,.07,0h0s0,0,0,0,.09.06,0,.06,0,0,0,.07.08.06,0,.15,0,.11,0,.23-.07.06,0,.1-.09.1-.08.16,0,0,.07,0h.1c-.15.07,0,.15-.14.14s0,.08.09.09,0,.05,0,0-.09-.08-.12-.07,0,.11,0,.17,0,.13-.11.07,0,.06,0,.12a.66.66,0,0,0,.07.13s0,.06,0,.06,0,.11.05.12,0,0,0,0a1.34,1.34,0,0,1,.19.2c0,.06.15.13.13.15s.06,0,0,.07,0,0,.15.21c0,.05,0,.08.08.06h0s0,0,0,0,0,.1,0,.11,0,.11,0,.1,0,.05,0,.07,0,.09.1,0,0,0,.06,0h.06s-.11.06-.18.09.06.08.08.22.13.29.09.44,0,.11,0,.21.17.28.09.55-.09.09-.16.25-.07,0-.18.25,0,.71-.12.77,0-.07,0,.37.2.48.19.64.37.75.34.83,0,.07,0,.24.15.74.11.81a.55.55,0,0,0,.12.34.34.34,0,0,0,.09.09c.06,0,0,.51.2.66s0,.18.06.29,0,.09-.07.14c.11.09,0,.12.07.19s-.06.16.12.23c0,0-.05-.08,0-.1s.07,0,.11.06a.19.19,0,0,0,.25,0c.07,0,.11,0,.13,0a.07.07,0,0,0,.06,0c.06,0,.1,0,.15-.07s.08,0,.12,0h.07a.34.34,0,0,1,.21,0c.08,0,.09,0,.1,0s0,0,.06,0,.09-.1.23-.11c.32,0,.37-.28.47-.34s.19-.3.29-.34.39-.67.56-.69.14-.07.27-.52c0-.15-.16-.17.23-.32s.39-.34.39-.39.12-.15.1-.28a2,2,0,0,1,0-.24c-.06-.17,0-.24-.07-.27s0-.3.18-.39.35-.42.55-.45.12-.12.17-.11.31-.17.37-.28.07,0,.16-.18.13-.17.06-.4,0-.28,0-.43.06-.19,0-.27,0-.18,0-.27-.1-.1-.1-.2c0-.26-.16-.27-.07-.41s0-.08.06-.18-.27-.17-.1-.42,0-.22.15-.34,0,0,.06-.1.08-.1.09-.21,0-.09,0-.23.13-.15.33-.35c0,0,0,0,.14-.23s.25-.21.38-.43.25-.18.44-.42.37-.38.41-.56.28-.2.29-.5.23-.45.22-.59,0,0,.1-.21,0-.13,0-.13,0,0,0,0,0-.22,0-.2-.07,0,0-.22-.08-.07-.15-.06-.24.17-.33.16-.08,0-.1,0,0,0-.12,0a.22.22,0,0,0-.15,0,.25.25,0,0,1-.19,0c-.16,0-.14,0-.29.08s-.36-.19-.41-.25h0c0-.06,0,0-.13,0s0,0,0,0,.12,0,.15-.11-.09-.15-.17-.27,0,0,0,0,0-.06-.12-.15-.17-.29-.28-.29,0-.06-.15-.07-.09-.18-.13-.11-.06,0-.13-.23-.11-.25-.26-.52c0-.08-.08-.14-.1-.09s0,0,0,0,0,0-.07,0-.07-.09-.1-.17a.88.88,0,0,1,0-.33c.06,0-.13-.21-.12-.31s0,0-.2-.22,0,0-.1-.16.12,0,0-.15-.19-.13-.23-.27-.13-.14-.3-.45.1,0,0-.17,0,0-.09-.14-.1-.15-.17-.23,0-.08-.08-.22,0-.09-.07-.26a.74.74,0,0,0,.13.24c.07.06.05.11.14.2s.09.17.19.26.08.14.15,0,0-.09,0-.21,0-.15,0-.25.22.15.22.15-.13-.15-.22-.15.07,0,0,.11,0,.07,0,.18.07,0,.09.12.18.18.15.22.07.1.27.44,0,0,.12.29c0,.07.16,0,.22.13s.09.07.09.11a1.73,1.73,0,0,0,.2.49c.08.16-.09,0,0,.14s0,.07.16.21c.36.26.24.35.39.5a1.13,1.13,0,0,1,.25.33c.1.17,0,.12.09.18s0,0,0,.09c.06.41.1.33.1.38s.11.24.07.31,0,.12.06.19.3.07.33,0,0,0,0,0,0,0,.1,0,.31,0,.39-.14.28,0,.37-.17.43-.16.47-.22.29-.07.23-.12.09-.18.17-.22.07,0,.15-.07.18,0,.28-.1,0-.09,0-.14.28,0,.24-.14a.16.16,0,0,1,.19-.18c.14,0,.08,0,0-.13s0-.37.08-.32.12-.32.17-.34,0-.08,0-.08m-2.19,9s0,0,0,0,0-.09-.12,0-.05.07,0,.12-.1.11-.13.21,0,0,0,0,0,0-.06,0,.05.15,0,.16,0,0-.1.16-.08.07-.08,0,0,0,0,0-.1.06-.12.17-.07,0-.13,0-.16,0-.2.06a.06.06,0,0,1-.07,0s-.06,0-.08.1-.14.14-.12.37,0,.21,0,.38,0,.12-.08.29-.13,0-.24.34.08.27,0,.54.34.39.51.24a.77.77,0,0,0,.39-.39,2,2,0,0,0,.19-.54,2.05,2.05,0,0,1,.26-.62c.17-.29.07-.4.27-.64.05-.06-.08-.17,0-.28s0,0,.06,0,0,0,.08,0a2.4,2.4,0,0,0-.1-.79M129.32,13.78h0v0h0c.06,0,0,0,0,0s0,0,0,.07,0,0,0,0,0,0,0,.08,0,0,0,0,0-.06,0-.08v0c0,.06.06,0,.08,0s0,0,0,0,0,0-.06,0,.06.05,0,.06,0,0,0,.05,0,0,0,0h0l0,.06v0s0,0,.06,0h0s0,0,0,0h.16a.13.13,0,0,0-.06,0s0,0,0,.1,0,0,0,0h0s0,0,0,.06,0,0,0,0a.09.09,0,0,0,0,0s0,0,.07,0,0,0,0,0h0v0a0,0,0,0,0,0,0h-.06l-.06,0s0-.06-.06,0,.08,0,0,0,0,0,0,0-.06,0,0,0h0s0,0,.07,0,0,0,0,0h0s0,0,0,0a.11.11,0,0,1-.1.07l-.1,0s0,0,0,0h0s0,0,.06,0h0v0s0,0,0,0h0a.1.1,0,0,0,.08,0s0,0,.07,0,0,0,.09,0,0,.05,0,0l0,0s-.07,0-.09,0,0,0-.11,0,0,0,0,0,0,0,0,0l-.08.06a.15.15,0,0,1-.09,0s0,0,0,0h.07s0,0,0,0,0,0,.05,0h.08l0,0h.05s0,0,0-.07,0,0,.07,0a.08.08,0,0,1,.09,0h.07s.07,0,0,0,0,0,.07,0,0,0,0,0,0,0,0,0h.06s0,0,0,0a.21.21,0,0,1,.12,0,.09.09,0,0,0,.09,0h0s0,0,.08,0,0,0,0-.05h-.1l-.1,0h0a.07.07,0,0,0,.07,0s0,0,0,0h0a0,0,0,0,0,0,0s0,0,0,0,0,0,.06,0,0,0,0-.05-.06-.11-.1-.13-.08,0-.1,0,0,0-.06,0,0,0,0,0a0,0,0,0,0,0-.09l-.09-.05.08,0s0,0,0-.08.07,0,0,0,0-.07-.13-.08a0,0,0,0,1,0,0c0-.05,0,0,0-.11s0,0-.06-.08l0,0,0,0c-.06,0,0,0-.11,0h-.09a.1.1,0,0,0,.1,0h.06s0,0,0,0-.08,0-.08,0a.09.09,0,0,1,.07,0s.05,0,.08-.06,0,0,0-.07,0,0,0-.06,0,0,0,0h-.13a.19.19,0,0,0-.12,0s-.05,0,0,0,0,0,0,0,0,0,0,0l-.05,0,0,0,.1-.06s0,0,0-.05h-.13a.13.13,0,0,0-.06,0h0s0,0,0,0,0,0,0,0h0s0,0,0,0,0,.05,0,.05l0,0s0,0-.07,0,0,0,0,0,0,0,0,0,.08,0,0,0,0,0,0,0,0,0-.07,0,0,0,0,0,.06,0,0,0m-.82.84h0l-.08,0s0,0,0,0h0s0,0,0,0l.08,0-.09,0s0,0,0,0h0a.1.1,0,0,1,.08,0h.14s0,0,.07,0h.1s0,0,0,0H129v0h.11s0,0,0,0l0,0s0,0,0,0v-.09s0,0,0,0,0,0,0,0l0,0,0,0s0,0,0,0h0l0,0h0l0,0v0h-.07l0,0v0l0,0v0l0,0h-.07l-.06,0H129l0,0s0,0,0,0,0,0,0,0,0,0,0,.05V14h-.09s0,0,0,0,0,0,0,0,0,0,0,0,0,0,0,0,0,0,.07,0,0,0,0,0,0,0-.05,0,0,0,0,0,0,0-.05,0h-.05l-.08,0h0v0l0,0a.08.08,0,0,0-.06,0l0,0h.05s0,0,0,0,0,0,0,0h0s0,0,0,0,0,0,0,0v0h0l0,0s.05,0,.08,0,0,0,0,0,0,0-.06,0h0l0,0s0,0,0,0,0,0,0,0h.06a.08.08,0,0,0,.07,0h0v0h-.12c-.05,0,0,0,0,0s0,0,0,0l0,0h-.1s-.06,0,0,0h.06m.62-.37,0,0,0,0m4.32,3.52h-.07a0,0,0,0,1,0,0s0,0-.06,0h-.15s0,0-.07,0H133a.08.08,0,0,1-.07,0s-.05,0-.09,0,0,.07.06.07.07,0,.1.06,0,.07.12.07a.12.12,0,0,1,.12.05h0a.11.11,0,0,1,.07,0s0,0,0-.06,0-.07,0-.09,0,0,0-.07,0,0,.06-.11M132,13.66s0,0-.06,0-.05,0-.09.06h-.1l0,0s0,0,0,0,0,0,0-.06h.07s0,0,.05,0,.05,0,.07.05,0,0,0,0,0,0,0-.07,0,0,0,0m.08.44s0,0-.07,0h-.06v0l.05,0s.09,0,.11,0,0,0,0-.05h0m.08,0s0,.06,0,.09,0,0,.06,0h0s-.07,0,0,0,.11,0,.1,0,0,0,0-.07,0-.05,0-.07,0,0,0-.07,0,0,0,0,0,0-.06,0h0s0,0,0,0,0,0,0,0,0,0,0,0,0,0,0,0-.07,0,0,0,0,0,0,0-.11,0-.08,0M132,17.23s0,.06,0,.09,0,0,0,.06,0,.06,0,.14.07.05.06.07h.06s0-.06,0-.07l0,0,0,0s0-.07,0-.09,0,0,0-.06a.07.07,0,0,0,0-.08s0,0,0-.07l0-.08s0,0,0-.06,0,0,0,0,0,0-.05,0a.07.07,0,0,1-.06,0h0v0s0,0,0,0m0-.41s0,.07,0,.07,0,.08,0,.07v0s0,0,0,0l0,0,0,0a1,1,0,0,1,0-.1.21.21,0,0,0,0-.14.47.47,0,0,1,0-.09c0-.06,0-.07,0,0a0,0,0,0,1,0,0s0,0,0,0-.07,0,0,0,0,0,0,0"/></g><path class="cls-2" d="M142.29,34.91a3.86,3.86,0,1,1,3.86,3.84A3.82,3.82,0,0,1,142.29,34.91Zm7.12,0a3.27,3.27,0,1,0-3.27,3.25A3.27,3.27,0,0,0,149.41,34.91ZM148,37h-.71L146,35h-.71V37h-.59v-4.2h1.83c.76,0,1.49.21,1.49,1.11S147.45,35,146.71,35Zm-2-2.53c.52,0,1.44.1,1.44-.57,0-.43-.57-.51-1-.51H145.3v1.08Z"/><path class="cls-6" d="M58.39,52.48a.48.48,0,0,0,0-.39,1.5,1.5,0,0,1-.8.66L27.46,66.4a6.63,6.63,0,0,1-4.11.25L.92,59.44A1.37,1.37,0,0,1,0,58.85a.48.48,0,0,0,0,.39.47.47,0,0,0,0,.36A.47.47,0,0,0,0,60a.47.47,0,0,0,0,.36.47.47,0,0,0,0,.36.47.47,0,0,0,0,.36c-.15.37.15.74.88,1l22.43,7.21A6.63,6.63,0,0,0,27.46,69L57.58,55.35c.68-.31.95-.7.81-1a.48.48,0,0,0,0-.36.48.48,0,0,0,0-.36.48.48,0,0,0,0-.36.48.48,0,0,0,0-.36A.48.48,0,0,0,58.39,52.48Z"/><path class="cls-6" d="M.92,57.57l22.43,7.21a6.63,6.63,0,0,0,4.11-.25L57.58,50.88c1.12-.51,1.13-1.24,0-1.62L35.8,41.74a5.61,5.61,0,0,0-1.9-.24l.24-.73a16.7,16.7,0,1,0-7.89,0l1,3.14L.83,55.93C-.31,56.45-.27,57.19.92,57.57ZM14.08,61c-1.22,0-2.21-.41-2.21-.91s1-.91,2.21-.91,2.21.41,2.21.91S15.3,61,14.08,61Zm2.7-36.42A13.42,13.42,0,1,1,30.2,38,13.44,13.44,0,0,1,16.78,24.55ZM8.58,55.14,28,45.94l2.22,6.67,3-9.14a2.44,2.44,0,0,1,1.37,0l18.1,6.44c.45.16.46.45,0,.65L27.43,61.81a2.37,2.37,0,0,1-1.51,0L8.66,55.75C8.23,55.6,8.19,55.32,8.58,55.14Z"/><path class="cls-6" d="M37.55,22.92a7.3,7.3,0,1,0-14.61,0c0,4,7.3,13,7.3,13S37.55,27,37.55,22.92ZM27,22.94a3.23,3.23,0,1,1,3.23,3.23A3.23,3.23,0,0,1,27,22.94Z"/><path class="cls-6" d="M47.25,35.65h0a2.55,2.55,0,0,1,2.19-1.35,3,3,0,0,1,1.52.46l-.8,1.54a1.64,1.64,0,0,0-1-.44c-1.85,0-1.94,2.38-1.94,3.66v4.95H45.57V34.58h1.68Z"/><path class="cls-6" d="M62,43.1h0a4.22,4.22,0,0,1-3.41,1.64c-2.9,0-4.74-2.46-4.74-5.2s1.79-5.24,4.76-5.24A4.28,4.28,0,0,1,61.94,36h0V27.1h1.68V44.47H62Zm-6.46-3.68c0,1.94,1.14,3.77,3.24,3.77s3.3-1.75,3.3-3.75a3.31,3.31,0,0,0-3.33-3.58A3.35,3.35,0,0,0,55.52,39.42Z"/><path class="cls-6" d="M69.56,39.88a3.2,3.2,0,0,0,3.24,3.3,3.39,3.39,0,0,0,3-2l1.43.82a5,5,0,0,1-4.57,2.78,4.79,4.79,0,0,1-4.84-5.09c0-2.93,1.7-5.35,4.8-5.35s4.86,2.63,4.69,5.58Zm6-1.43a3,3,0,0,0-2.9-2.59,3.13,3.13,0,0,0-3,2.59Z"/><path class="cls-6" d="M83.18,35.65h0a2.55,2.55,0,0,1,2.19-1.35,3,3,0,0,1,1.52.46l-.8,1.54a1.64,1.64,0,0,0-1-.44c-1.85,0-1.94,2.38-1.94,3.66v4.95H81.5V34.58h1.68Z"/></g></g></svg>